<mxfile host="app.diagrams.net" agent="Mozilla/5.0 (Windows NT 10.0; Win64; x64) AppleWebKit/537.36 (KHTML, like Gecko) Chrome/131.0.0.0 Safari/537.36" version="26.0.7">
  <diagram name="Page-1" id="HHtlFshpQ32gfU4k5V_X">
    <mxGraphModel dx="1434" dy="738" grid="1" gridSize="10" guides="1" tooltips="1" connect="1" arrows="1" fold="1" page="1" pageScale="1" pageWidth="827" pageHeight="1169" math="0" shadow="0">
      <root>
        <mxCell id="0" />
        <mxCell id="1" parent="0" />
        <mxCell id="42vADjcBvc1gCo-mJGIS-1" value="&amp;nbsp;Trust" style="rounded=0;whiteSpace=wrap;html=1;dashed=1;align=left;verticalAlign=top;fontStyle=1;fillColor=#647687;strokeColor=#314354;fontSize=14;fontColor=#ffffff;" parent="1" vertex="1">
          <mxGeometry x="449" y="190" width="200" height="320" as="geometry" />
        </mxCell>
        <mxCell id="42vADjcBvc1gCo-mJGIS-2" style="edgeStyle=orthogonalEdgeStyle;rounded=0;orthogonalLoop=1;jettySize=auto;html=1;entryX=0.5;entryY=0;entryDx=0;entryDy=0;strokeWidth=2;fontSize=14;" parent="1" source="42vADjcBvc1gCo-mJGIS-4" target="42vADjcBvc1gCo-mJGIS-6" edge="1">
          <mxGeometry relative="1" as="geometry" />
        </mxCell>
        <mxCell id="42vADjcBvc1gCo-mJGIS-3" value="HL7v2" style="edgeLabel;html=1;align=center;verticalAlign=middle;resizable=0;points=[];fontSize=14;" parent="42vADjcBvc1gCo-mJGIS-2" vertex="1" connectable="0">
          <mxGeometry x="-0.2" y="1" relative="1" as="geometry">
            <mxPoint as="offset" />
          </mxGeometry>
        </mxCell>
        <mxCell id="42vADjcBvc1gCo-mJGIS-4" value="Epic EPR" style="rounded=1;whiteSpace=wrap;html=1;strokeWidth=2;fontSize=14;" parent="1" vertex="1">
          <mxGeometry x="489" y="310" width="120" height="60" as="geometry" />
        </mxCell>
        <mxCell id="42vADjcBvc1gCo-mJGIS-5" style="edgeStyle=orthogonalEdgeStyle;rounded=0;orthogonalLoop=1;jettySize=auto;html=1;strokeWidth=2;fontSize=14;" parent="1" source="42vADjcBvc1gCo-mJGIS-6" target="42vADjcBvc1gCo-mJGIS-12" edge="1">
          <mxGeometry relative="1" as="geometry" />
        </mxCell>
        <mxCell id="42vADjcBvc1gCo-mJGIS-6" value="Trust Integration Engine (TIE)" style="rounded=1;whiteSpace=wrap;html=1;strokeWidth=2;fontSize=14;" parent="1" vertex="1">
          <mxGeometry x="489" y="430" width="120" height="60" as="geometry" />
        </mxCell>
        <mxCell id="42vADjcBvc1gCo-mJGIS-7" style="rounded=0;orthogonalLoop=1;jettySize=auto;html=1;entryX=1;entryY=0.5;entryDx=0;entryDy=0;endArrow=none;endFill=0;exitX=0;exitY=0.75;exitDx=0;exitDy=0;dashed=1;fontSize=14;" parent="1" source="42vADjcBvc1gCo-mJGIS-9" target="42vADjcBvc1gCo-mJGIS-4" edge="1">
          <mxGeometry relative="1" as="geometry" />
        </mxCell>
        <mxCell id="42vADjcBvc1gCo-mJGIS-8" style="rounded=0;orthogonalLoop=1;jettySize=auto;html=1;entryX=1;entryY=0.5;entryDx=0;entryDy=0;endArrow=none;endFill=0;exitX=0;exitY=0.25;exitDx=0;exitDy=0;dashed=1;fontSize=14;" parent="1" source="42vADjcBvc1gCo-mJGIS-9" target="42vADjcBvc1gCo-mJGIS-29" edge="1">
          <mxGeometry relative="1" as="geometry" />
        </mxCell>
        <mxCell id="42vADjcBvc1gCo-mJGIS-9" value="Produced by EPIC&lt;div&gt;Deployed on premise&lt;/div&gt;&lt;div&gt;Managed by trust&lt;/div&gt;" style="rounded=0;whiteSpace=wrap;html=1;fillColor=#f5f5f5;fontColor=#333333;strokeColor=#666666;fontSize=14;" parent="1" vertex="1">
          <mxGeometry x="669" y="260" width="140" height="60" as="geometry" />
        </mxCell>
        <mxCell id="42vADjcBvc1gCo-mJGIS-10" style="rounded=0;orthogonalLoop=1;jettySize=auto;html=1;entryX=1;entryY=0.5;entryDx=0;entryDy=0;endArrow=none;endFill=0;exitX=0;exitY=0.5;exitDx=0;exitDy=0;dashed=1;fontSize=14;" parent="1" source="42vADjcBvc1gCo-mJGIS-11" target="42vADjcBvc1gCo-mJGIS-6" edge="1">
          <mxGeometry relative="1" as="geometry" />
        </mxCell>
        <mxCell id="42vADjcBvc1gCo-mJGIS-11" value="Produced by 3rd party&lt;div&gt;Procured by trust&lt;br&gt;&lt;div&gt;Configured by trust&lt;/div&gt;&lt;/div&gt;" style="rounded=0;whiteSpace=wrap;html=1;fillColor=#f5f5f5;fontColor=#333333;strokeColor=#666666;fontSize=14;" parent="1" vertex="1">
          <mxGeometry x="669" y="390" width="140" height="60" as="geometry" />
        </mxCell>
        <mxCell id="42vADjcBvc1gCo-mJGIS-12" value="Pointers /&amp;nbsp;&lt;div&gt;Record Locators&lt;/div&gt;" style="rounded=1;whiteSpace=wrap;html=1;strokeWidth=2;fontSize=14;" parent="1" vertex="1">
          <mxGeometry x="489" y="570" width="120" height="60" as="geometry" />
        </mxCell>
        <mxCell id="42vADjcBvc1gCo-mJGIS-13" style="edgeStyle=orthogonalEdgeStyle;rounded=1;orthogonalLoop=1;jettySize=auto;html=1;entryX=0;entryY=0.5;entryDx=0;entryDy=0;exitX=0.5;exitY=1;exitDx=0;exitDy=0;curved=0;strokeWidth=2;fontSize=14;" parent="1" source="42vADjcBvc1gCo-mJGIS-17" target="42vADjcBvc1gCo-mJGIS-12" edge="1">
          <mxGeometry relative="1" as="geometry" />
        </mxCell>
        <mxCell id="42vADjcBvc1gCo-mJGIS-14" value="Look-up" style="edgeLabel;html=1;align=center;verticalAlign=middle;resizable=0;points=[];fontSize=14;" parent="42vADjcBvc1gCo-mJGIS-13" vertex="1" connectable="0">
          <mxGeometry x="0.0694" relative="1" as="geometry">
            <mxPoint as="offset" />
          </mxGeometry>
        </mxCell>
        <mxCell id="42vADjcBvc1gCo-mJGIS-15" style="edgeStyle=orthogonalEdgeStyle;rounded=1;orthogonalLoop=1;jettySize=auto;html=1;entryX=0;entryY=0.5;entryDx=0;entryDy=0;exitX=0.5;exitY=0;exitDx=0;exitDy=0;curved=0;strokeWidth=2;fontSize=14;" parent="1" source="42vADjcBvc1gCo-mJGIS-17" target="42vADjcBvc1gCo-mJGIS-35" edge="1">
          <mxGeometry relative="1" as="geometry" />
        </mxCell>
        <mxCell id="42vADjcBvc1gCo-mJGIS-16" value="Retrieve&lt;div&gt;(and manage)&lt;/div&gt;" style="edgeLabel;html=1;align=center;verticalAlign=middle;resizable=0;points=[];labelBackgroundColor=none;fontSize=14;" parent="42vADjcBvc1gCo-mJGIS-15" vertex="1" connectable="0">
          <mxGeometry x="-0.108" relative="1" as="geometry">
            <mxPoint x="46" y="34" as="offset" />
          </mxGeometry>
        </mxCell>
        <mxCell id="42vADjcBvc1gCo-mJGIS-17" value="Wayfinder&amp;nbsp;&lt;div&gt;Aggregator&lt;/div&gt;" style="rounded=1;whiteSpace=wrap;html=1;strokeWidth=2;fontSize=14;" parent="1" vertex="1">
          <mxGeometry x="219" y="430" width="120" height="60" as="geometry" />
        </mxCell>
        <mxCell id="42vADjcBvc1gCo-mJGIS-18" style="edgeStyle=orthogonalEdgeStyle;rounded=0;orthogonalLoop=1;jettySize=auto;html=1;entryX=0;entryY=0.5;entryDx=0;entryDy=0;strokeWidth=2;fontSize=14;" parent="1" source="42vADjcBvc1gCo-mJGIS-22" target="42vADjcBvc1gCo-mJGIS-23" edge="1">
          <mxGeometry relative="1" as="geometry" />
        </mxCell>
        <mxCell id="42vADjcBvc1gCo-mJGIS-19" style="edgeStyle=orthogonalEdgeStyle;rounded=1;orthogonalLoop=1;jettySize=auto;html=1;entryX=0;entryY=0.5;entryDx=0;entryDy=0;exitX=0.5;exitY=1;exitDx=0;exitDy=0;curved=0;fontSize=14;" parent="1" source="42vADjcBvc1gCo-mJGIS-22" target="42vADjcBvc1gCo-mJGIS-17" edge="1">
          <mxGeometry relative="1" as="geometry" />
        </mxCell>
        <mxCell id="42vADjcBvc1gCo-mJGIS-20" style="edgeStyle=orthogonalEdgeStyle;rounded=1;orthogonalLoop=1;jettySize=auto;html=1;exitX=0.75;exitY=0;exitDx=0;exitDy=0;entryX=0.25;entryY=0;entryDx=0;entryDy=0;curved=0;strokeWidth=2;fontSize=14;" parent="1" source="42vADjcBvc1gCo-mJGIS-22" target="42vADjcBvc1gCo-mJGIS-29" edge="1">
          <mxGeometry relative="1" as="geometry">
            <Array as="points">
              <mxPoint x="109" y="150" />
              <mxPoint x="519" y="150" />
            </Array>
          </mxGeometry>
        </mxCell>
        <mxCell id="42vADjcBvc1gCo-mJGIS-21" value="jump-off" style="edgeLabel;html=1;align=center;verticalAlign=middle;resizable=0;points=[];fontSize=14;" parent="42vADjcBvc1gCo-mJGIS-20" vertex="1" connectable="0">
          <mxGeometry x="0.0589" y="3" relative="1" as="geometry">
            <mxPoint as="offset" />
          </mxGeometry>
        </mxCell>
        <mxCell id="42vADjcBvc1gCo-mJGIS-22" value="NHS App" style="rounded=1;whiteSpace=wrap;html=1;strokeWidth=2;fontSize=14;" parent="1" vertex="1">
          <mxGeometry x="19" y="210" width="120" height="60" as="geometry" />
        </mxCell>
        <mxCell id="42vADjcBvc1gCo-mJGIS-23" value="NHS login" style="rounded=1;whiteSpace=wrap;html=1;strokeWidth=2;fontSize=14;" parent="1" vertex="1">
          <mxGeometry x="239" y="210" width="120" height="60" as="geometry" />
        </mxCell>
        <mxCell id="42vADjcBvc1gCo-mJGIS-24" style="edgeStyle=orthogonalEdgeStyle;rounded=1;orthogonalLoop=1;jettySize=auto;html=1;curved=0;strokeWidth=2;fontSize=14;" parent="1" source="42vADjcBvc1gCo-mJGIS-26" target="42vADjcBvc1gCo-mJGIS-22" edge="1">
          <mxGeometry relative="1" as="geometry" />
        </mxCell>
        <mxCell id="42vADjcBvc1gCo-mJGIS-25" style="edgeStyle=orthogonalEdgeStyle;rounded=1;orthogonalLoop=1;jettySize=auto;html=1;curved=0;strokeWidth=2;fontSize=14;" parent="1" source="42vADjcBvc1gCo-mJGIS-26" target="42vADjcBvc1gCo-mJGIS-29" edge="1">
          <mxGeometry relative="1" as="geometry" />
        </mxCell>
        <mxCell id="42vADjcBvc1gCo-mJGIS-26" value="Patient" style="shape=umlActor;verticalLabelPosition=bottom;verticalAlign=top;html=1;outlineConnect=0;fontSize=14;strokeWidth=2;" parent="1" vertex="1">
          <mxGeometry x="289" y="20" width="30" height="60" as="geometry" />
        </mxCell>
        <mxCell id="42vADjcBvc1gCo-mJGIS-27" value="" style="edgeStyle=orthogonalEdgeStyle;rounded=0;orthogonalLoop=1;jettySize=auto;html=1;strokeWidth=2;fontSize=14;" parent="1" source="42vADjcBvc1gCo-mJGIS-29" target="42vADjcBvc1gCo-mJGIS-4" edge="1">
          <mxGeometry relative="1" as="geometry" />
        </mxCell>
        <mxCell id="42vADjcBvc1gCo-mJGIS-28" style="edgeStyle=orthogonalEdgeStyle;rounded=0;orthogonalLoop=1;jettySize=auto;html=1;entryX=1;entryY=0.5;entryDx=0;entryDy=0;strokeWidth=2;fontSize=14;" parent="1" source="42vADjcBvc1gCo-mJGIS-29" target="42vADjcBvc1gCo-mJGIS-23" edge="1">
          <mxGeometry relative="1" as="geometry" />
        </mxCell>
        <mxCell id="42vADjcBvc1gCo-mJGIS-29" value="MyChart&lt;div&gt;(Epic PFS)&lt;/div&gt;" style="rounded=1;whiteSpace=wrap;html=1;strokeWidth=2;fontSize=14;" parent="1" vertex="1">
          <mxGeometry x="489" y="210" width="120" height="60" as="geometry" />
        </mxCell>
        <mxCell id="42vADjcBvc1gCo-mJGIS-30" value="1" style="ellipse;whiteSpace=wrap;html=1;aspect=fixed;fillColor=#008a00;strokeColor=#005700;fontSize=14;fontColor=#ffffff;fontStyle=1" parent="1" vertex="1">
          <mxGeometry x="399" y="230" width="20" height="20" as="geometry" />
        </mxCell>
        <mxCell id="42vADjcBvc1gCo-mJGIS-31" value="2" style="ellipse;whiteSpace=wrap;html=1;aspect=fixed;fillColor=#008a00;strokeColor=#005700;fontSize=14;fontColor=#ffffff;fontStyle=1" parent="1" vertex="1">
          <mxGeometry x="539" y="530" width="20" height="20" as="geometry" />
        </mxCell>
        <mxCell id="42vADjcBvc1gCo-mJGIS-32" value="3" style="ellipse;whiteSpace=wrap;html=1;aspect=fixed;fillColor=#008a00;strokeColor=#005700;fontSize=14;fontColor=#ffffff;fontStyle=1" parent="1" vertex="1">
          <mxGeometry x="270" y="370" width="20" height="20" as="geometry" />
        </mxCell>
        <mxCell id="42vADjcBvc1gCo-mJGIS-33" value="4" style="ellipse;whiteSpace=wrap;html=1;aspect=fixed;fillColor=#008a00;strokeColor=#005700;fontSize=14;fontColor=#ffffff;fontStyle=1" parent="1" vertex="1">
          <mxGeometry x="199" y="140" width="20" height="20" as="geometry" />
        </mxCell>
        <mxCell id="42vADjcBvc1gCo-mJGIS-34" style="edgeStyle=orthogonalEdgeStyle;rounded=0;orthogonalLoop=1;jettySize=auto;html=1;entryX=0;entryY=0.5;entryDx=0;entryDy=0;strokeWidth=2;fontSize=14;" parent="1" source="42vADjcBvc1gCo-mJGIS-35" target="42vADjcBvc1gCo-mJGIS-4" edge="1">
          <mxGeometry relative="1" as="geometry" />
        </mxCell>
        <mxCell id="42vADjcBvc1gCo-mJGIS-35" value="BaRS Proxy&lt;div&gt;(API-M)&lt;/div&gt;" style="rounded=1;whiteSpace=wrap;html=1;strokeWidth=2;fontSize=14;" parent="1" vertex="1">
          <mxGeometry x="309" y="310" width="120" height="60" as="geometry" />
        </mxCell>
      </root>
    </mxGraphModel>
  </diagram>
</mxfile>
